<mxfile host="Electron" modified="2025-02-06T08:38:42.650Z" agent="Mozilla/5.0 (Windows NT 10.0; Win64; x64) AppleWebKit/537.36 (KHTML, like Gecko) draw.io/24.6.1 Chrome/124.0.6367.207 Electron/30.0.6 Safari/537.36" etag="Zuyvi6b6aBN8Hp_FC0VF" version="24.6.1" type="device" pages="6">
  <diagram id="iLZs3jUUbc6s841LLNxe" name="WorkFlow">
    <mxGraphModel dx="1381" dy="809" grid="1" gridSize="10" guides="1" tooltips="1" connect="1" arrows="1" fold="1" page="1" pageScale="1" pageWidth="827" pageHeight="1169" math="0" shadow="0">
      <root>
        <mxCell id="0" />
        <mxCell id="1" parent="0" />
      </root>
    </mxGraphModel>
  </diagram>
  <diagram name="Type" id="GnXUbsLAUt-_IhSWvtKM">
    <mxGraphModel dx="2517" dy="2844" grid="1" gridSize="10" guides="1" tooltips="1" connect="1" arrows="1" fold="1" page="1" pageScale="1" pageWidth="827" pageHeight="1169" math="0" shadow="0">
      <root>
        <mxCell id="0" />
        <mxCell id="1" parent="0" />
        <mxCell id="-SuzEeylegbd52WuTmj7-1" value="Struct: t_sCL42T_MotorSignalInfo&lt;div&gt;in .c&lt;/div&gt;" style="swimlane;fontStyle=0;childLayout=stackLayout;horizontal=1;startSize=40;horizontalStack=0;resizeParent=1;resizeParentMax=0;resizeLast=0;collapsible=1;marginBottom=0;whiteSpace=wrap;html=1;fillColor=#dae8fc;gradientColor=#7ea6e0;strokeColor=#6c8ebf;fontColor=#000000;" parent="1" vertex="1">
          <mxGeometry x="-1260" y="-2250" width="280" height="130" as="geometry">
            <mxRectangle x="-560" y="-640" width="240" height="40" as="alternateBounds" />
          </mxGeometry>
        </mxCell>
        <mxCell id="-SuzEeylegbd52WuTmj7-2" value="&lt;span style=&quot;text-align: center;&quot;&gt;t_uint8 signal_u8&lt;/span&gt;" style="text;strokeColor=#6c8ebf;fillColor=#dae8fc;align=left;verticalAlign=middle;spacingLeft=4;spacingRight=4;overflow=hidden;points=[[0,0.5],[1,0.5]];portConstraint=eastwest;rotatable=0;whiteSpace=wrap;html=1;gradientColor=#7ea6e0;fontColor=#000000;" parent="-SuzEeylegbd52WuTmj7-1" vertex="1">
          <mxGeometry y="40" width="280" height="30" as="geometry" />
        </mxCell>
        <mxCell id="-SuzEeylegbd52WuTmj7-3" value="&lt;span style=&quot;text-align: center;&quot;&gt;t_uint32 value_u32&lt;/span&gt;" style="text;strokeColor=#6c8ebf;fillColor=#dae8fc;align=left;verticalAlign=middle;spacingLeft=4;spacingRight=4;overflow=hidden;points=[[0,0.5],[1,0.5]];portConstraint=eastwest;rotatable=0;whiteSpace=wrap;html=1;gradientColor=#7ea6e0;fontColor=#000000;" parent="-SuzEeylegbd52WuTmj7-1" vertex="1">
          <mxGeometry y="70" width="280" height="30" as="geometry" />
        </mxCell>
        <mxCell id="-SuzEeylegbd52WuTmj7-4" value="&lt;span style=&quot;text-align: center;&quot;&gt;t_bool isConfigured_b&lt;/span&gt;" style="text;strokeColor=#6c8ebf;fillColor=#dae8fc;align=left;verticalAlign=middle;spacingLeft=4;spacingRight=4;overflow=hidden;points=[[0,0.5],[1,0.5]];portConstraint=eastwest;rotatable=0;whiteSpace=wrap;html=1;gradientColor=#7ea6e0;fontColor=#000000;" parent="-SuzEeylegbd52WuTmj7-1" vertex="1">
          <mxGeometry y="100" width="280" height="30" as="geometry" />
        </mxCell>
        <mxCell id="-SuzEeylegbd52WuTmj7-5" value="Enum : t_eCL42T_MotorId in ConfigPublic" style="swimlane;fontStyle=0;childLayout=stackLayout;horizontal=1;startSize=40;horizontalStack=0;resizeParent=1;resizeParentMax=0;resizeLast=0;collapsible=1;marginBottom=0;whiteSpace=wrap;html=1;fillColor=#f8cecc;gradientColor=#ea6b66;strokeColor=#b85450;fontColor=#000000;" parent="1" vertex="1">
          <mxGeometry x="-1600" y="-2320" width="240" height="130" as="geometry">
            <mxRectangle x="-1160" y="-1210" width="240" height="40" as="alternateBounds" />
          </mxGeometry>
        </mxCell>
        <mxCell id="-SuzEeylegbd52WuTmj7-6" value="CL42T_MOTOR_AXE_X_1" style="text;strokeColor=#b85450;fillColor=#f8cecc;align=left;verticalAlign=middle;spacingLeft=4;spacingRight=4;overflow=hidden;points=[[0,0.5],[1,0.5]];portConstraint=eastwest;rotatable=0;whiteSpace=wrap;html=1;gradientColor=#ea6b66;fontColor=#000000;" parent="-SuzEeylegbd52WuTmj7-5" vertex="1">
          <mxGeometry y="40" width="240" height="30" as="geometry" />
        </mxCell>
        <mxCell id="-SuzEeylegbd52WuTmj7-7" value="CL42T_MOTOR_AXE_X_2" style="text;strokeColor=#b85450;fillColor=#f8cecc;align=left;verticalAlign=middle;spacingLeft=4;spacingRight=4;overflow=hidden;points=[[0,0.5],[1,0.5]];portConstraint=eastwest;rotatable=0;whiteSpace=wrap;html=1;gradientColor=#ea6b66;fontColor=#000000;" parent="-SuzEeylegbd52WuTmj7-5" vertex="1">
          <mxGeometry y="70" width="240" height="30" as="geometry" />
        </mxCell>
        <mxCell id="-SuzEeylegbd52WuTmj7-8" value="CL42T_MOTOR_NB" style="text;strokeColor=#b85450;fillColor=#f8cecc;align=left;verticalAlign=middle;spacingLeft=4;spacingRight=4;overflow=hidden;points=[[0,0.5],[1,0.5]];portConstraint=eastwest;rotatable=0;whiteSpace=wrap;html=1;gradientColor=#ea6b66;fontColor=#000000;" parent="-SuzEeylegbd52WuTmj7-5" vertex="1">
          <mxGeometry y="100" width="240" height="30" as="geometry" />
        </mxCell>
        <mxCell id="UQEauc-5fOgNLauQ4SAD-1" value="Enum : t_eAGTRY_StateMachine&amp;nbsp;&lt;div&gt;in c&lt;/div&gt;" style="swimlane;fontStyle=0;childLayout=stackLayout;horizontal=1;startSize=40;horizontalStack=0;resizeParent=1;resizeParentMax=0;resizeLast=0;collapsible=1;marginBottom=0;whiteSpace=wrap;html=1;fillColor=#f8cecc;gradientColor=#ea6b66;strokeColor=#b85450;fontColor=#000000;" vertex="1" parent="1">
          <mxGeometry x="-1600" y="-2080" width="260" height="160" as="geometry">
            <mxRectangle x="-1160" y="-1210" width="240" height="40" as="alternateBounds" />
          </mxGeometry>
        </mxCell>
        <mxCell id="UQEauc-5fOgNLauQ4SAD-2" value="AGTRY_STATE_MACHINE_PRODUCTION" style="text;strokeColor=#b85450;fillColor=#f8cecc;align=left;verticalAlign=middle;spacingLeft=4;spacingRight=4;overflow=hidden;points=[[0,0.5],[1,0.5]];portConstraint=eastwest;rotatable=0;whiteSpace=wrap;html=1;gradientColor=#ea6b66;fontColor=#000000;" vertex="1" parent="UQEauc-5fOgNLauQ4SAD-1">
          <mxGeometry y="40" width="260" height="30" as="geometry" />
        </mxCell>
        <mxCell id="UQEauc-5fOgNLauQ4SAD-3" value="AGTRY_STATE_MACHINE_STOP" style="text;strokeColor=#b85450;fillColor=#f8cecc;align=left;verticalAlign=middle;spacingLeft=4;spacingRight=4;overflow=hidden;points=[[0,0.5],[1,0.5]];portConstraint=eastwest;rotatable=0;whiteSpace=wrap;html=1;gradientColor=#ea6b66;fontColor=#000000;" vertex="1" parent="UQEauc-5fOgNLauQ4SAD-1">
          <mxGeometry y="70" width="260" height="30" as="geometry" />
        </mxCell>
        <mxCell id="UQEauc-5fOgNLauQ4SAD-4" value="AGTRY_STATE_MACHINE_DEFAULT" style="text;strokeColor=#b85450;fillColor=#f8cecc;align=left;verticalAlign=middle;spacingLeft=4;spacingRight=4;overflow=hidden;points=[[0,0.5],[1,0.5]];portConstraint=eastwest;rotatable=0;whiteSpace=wrap;html=1;gradientColor=#ea6b66;fontColor=#000000;" vertex="1" parent="UQEauc-5fOgNLauQ4SAD-1">
          <mxGeometry y="100" width="260" height="30" as="geometry" />
        </mxCell>
        <mxCell id="UQEauc-5fOgNLauQ4SAD-5" value="AGTRY_STATE_MACHINE_NB" style="text;strokeColor=#b85450;fillColor=#f8cecc;align=left;verticalAlign=middle;spacingLeft=4;spacingRight=4;overflow=hidden;points=[[0,0.5],[1,0.5]];portConstraint=eastwest;rotatable=0;whiteSpace=wrap;html=1;gradientColor=#ea6b66;fontColor=#000000;" vertex="1" parent="UQEauc-5fOgNLauQ4SAD-1">
          <mxGeometry y="130" width="260" height="30" as="geometry" />
        </mxCell>
      </root>
    </mxGraphModel>
  </diagram>
  <diagram id="peJXOXnuc3PcW3HL0Ku3" name="sAPI">
    <mxGraphModel dx="2949" dy="3097" grid="1" gridSize="10" guides="1" tooltips="1" connect="1" arrows="1" fold="1" page="1" pageScale="1" pageWidth="827" pageHeight="1169" math="0" shadow="0">
      <root>
        <mxCell id="0" />
        <mxCell id="1" parent="0" />
        <mxCell id="pBz5WRBadtST9L2Vj5x2-4" value="" style="group;fontSize=12;" vertex="1" connectable="0" parent="1">
          <mxGeometry x="-1620" y="-2080" width="750" height="180" as="geometry" />
        </mxCell>
        <mxCell id="pBz5WRBadtST9L2Vj5x2-5" value="&lt;div style=&quot;font-size: 12px;&quot;&gt;&lt;div style=&quot;font-size: 12px;&quot;&gt;&lt;br&gt;&lt;/div&gt;&lt;/div&gt;" style="rounded=0;whiteSpace=wrap;html=1;fillColor=#d5e8d4;gradientColor=#97d077;strokeColor=#82b366;fontColor=#000000;align=left;fontSize=12;" vertex="1" parent="pBz5WRBadtST9L2Vj5x2-4">
          <mxGeometry width="750" height="180" as="geometry" />
        </mxCell>
        <mxCell id="pBz5WRBadtST9L2Vj5x2-6" value="&lt;span style=&quot;background-color: initial;&quot;&gt;s_AGTRY_ProductionMode&lt;/span&gt;" style="rounded=0;whiteSpace=wrap;html=1;fillColor=#d5e8d4;gradientColor=#97d077;strokeColor=#82b366;fontColor=#000000;fontSize=12;" vertex="1" parent="pBz5WRBadtST9L2Vj5x2-4">
          <mxGeometry width="750" height="45" as="geometry" />
        </mxCell>
        <mxCell id="FVlBDuuk-OKolhzOFZuM-1" value="" style="group;fontSize=12;" vertex="1" connectable="0" parent="1">
          <mxGeometry x="-1620" y="-1840" width="750" height="180" as="geometry" />
        </mxCell>
        <mxCell id="FVlBDuuk-OKolhzOFZuM-2" value="&lt;div style=&quot;font-size: 12px;&quot;&gt;&lt;div style=&quot;font-size: 12px;&quot;&gt;&lt;br&gt;&lt;/div&gt;&lt;/div&gt;" style="rounded=0;whiteSpace=wrap;html=1;fillColor=#d5e8d4;gradientColor=#97d077;strokeColor=#82b366;fontColor=#000000;align=left;fontSize=12;" vertex="1" parent="FVlBDuuk-OKolhzOFZuM-1">
          <mxGeometry width="750" height="180" as="geometry" />
        </mxCell>
        <mxCell id="FVlBDuuk-OKolhzOFZuM-3" value="s_AGTRY_PauseMode" style="rounded=0;whiteSpace=wrap;html=1;fillColor=#d5e8d4;gradientColor=#97d077;strokeColor=#82b366;fontColor=#000000;fontSize=12;" vertex="1" parent="FVlBDuuk-OKolhzOFZuM-1">
          <mxGeometry width="750" height="45" as="geometry" />
        </mxCell>
        <mxCell id="FVlBDuuk-OKolhzOFZuM-4" value="" style="group;fontSize=12;" vertex="1" connectable="0" parent="1">
          <mxGeometry x="-1615" y="-1600" width="750" height="180" as="geometry" />
        </mxCell>
        <mxCell id="FVlBDuuk-OKolhzOFZuM-5" value="&lt;div style=&quot;font-size: 12px;&quot;&gt;&lt;div style=&quot;font-size: 12px;&quot;&gt;&lt;br&gt;&lt;/div&gt;&lt;/div&gt;" style="rounded=0;whiteSpace=wrap;html=1;fillColor=#d5e8d4;gradientColor=#97d077;strokeColor=#82b366;fontColor=#000000;align=left;fontSize=12;" vertex="1" parent="FVlBDuuk-OKolhzOFZuM-4">
          <mxGeometry width="750" height="180" as="geometry" />
        </mxCell>
        <mxCell id="FVlBDuuk-OKolhzOFZuM-6" value="s_AGTRY_DefaultMode" style="rounded=0;whiteSpace=wrap;html=1;fillColor=#d5e8d4;gradientColor=#97d077;strokeColor=#82b366;fontColor=#000000;fontSize=12;" vertex="1" parent="FVlBDuuk-OKolhzOFZuM-4">
          <mxGeometry width="750" height="45" as="geometry" />
        </mxCell>
      </root>
    </mxGraphModel>
  </diagram>
  <diagram id="-wOYxniUDAQKlLjJh62I" name="API">
    <mxGraphModel dx="2555" dy="2866" grid="1" gridSize="10" guides="1" tooltips="1" connect="1" arrows="1" fold="1" page="1" pageScale="1" pageWidth="827" pageHeight="1169" math="0" shadow="0">
      <root>
        <mxCell id="0" />
        <mxCell id="1" parent="0" />
        <mxCell id="FQAZzlglf43ChFRwNS8U-1" value="" style="group;fontSize=12;" vertex="1" connectable="0" parent="1">
          <mxGeometry x="-1615" y="-2320" width="750" height="180" as="geometry" />
        </mxCell>
        <mxCell id="FQAZzlglf43ChFRwNS8U-2" value="&lt;div style=&quot;font-size: 12px;&quot;&gt;&lt;div style=&quot;font-size: 12px;&quot;&gt;&lt;br&gt;&lt;/div&gt;&lt;/div&gt;" style="rounded=0;whiteSpace=wrap;html=1;fillColor=#d5e8d4;gradientColor=#97d077;strokeColor=#82b366;fontColor=#000000;align=left;fontSize=12;" vertex="1" parent="FQAZzlglf43ChFRwNS8U-1">
          <mxGeometry width="750" height="180" as="geometry" />
        </mxCell>
        <mxCell id="FQAZzlglf43ChFRwNS8U-3" value="AgentGantry_Periodic(t_float32 * SnsValue_paf32, t_sAPPLGC_SrvFunc * f_SrvFunc_pas)" style="rounded=0;whiteSpace=wrap;html=1;fillColor=#d5e8d4;gradientColor=#97d077;strokeColor=#82b366;fontColor=#000000;fontSize=12;" vertex="1" parent="FQAZzlglf43ChFRwNS8U-1">
          <mxGeometry width="750" height="45" as="geometry" />
        </mxCell>
        <mxCell id="FQAZzlglf43ChFRwNS8U-4" value="" style="group;fontSize=12;" vertex="1" connectable="0" parent="1">
          <mxGeometry x="-1615" y="-2080" width="750" height="180" as="geometry" />
        </mxCell>
        <mxCell id="FQAZzlglf43ChFRwNS8U-5" value="&lt;div style=&quot;font-size: 12px;&quot;&gt;&lt;div style=&quot;font-size: 12px;&quot;&gt;&lt;br&gt;&lt;/div&gt;&lt;/div&gt;" style="rounded=0;whiteSpace=wrap;html=1;fillColor=#d5e8d4;gradientColor=#97d077;strokeColor=#82b366;fontColor=#000000;align=left;fontSize=12;" vertex="1" parent="FQAZzlglf43ChFRwNS8U-4">
          <mxGeometry width="750" height="180" as="geometry" />
        </mxCell>
        <mxCell id="FQAZzlglf43ChFRwNS8U-6" value="AgentGantry_Init()" style="rounded=0;whiteSpace=wrap;html=1;fillColor=#d5e8d4;gradientColor=#97d077;strokeColor=#82b366;fontColor=#000000;fontSize=12;" vertex="1" parent="FQAZzlglf43ChFRwNS8U-4">
          <mxGeometry width="750" height="45" as="geometry" />
        </mxCell>
      </root>
    </mxGraphModel>
  </diagram>
  <diagram id="VhvX4NbkFs5nP66auEO-" name="Operational">
    <mxGraphModel dx="1036" dy="607" grid="1" gridSize="10" guides="1" tooltips="1" connect="1" arrows="1" fold="1" page="1" pageScale="1" pageWidth="827" pageHeight="1169" math="0" shadow="0">
      <root>
        <mxCell id="0" />
        <mxCell id="1" parent="0" />
      </root>
    </mxGraphModel>
  </diagram>
  <diagram id="m1jDofKbq4jNKpQOZF09" name="Periodic">
    <mxGraphModel dx="1036" dy="607" grid="1" gridSize="10" guides="1" tooltips="1" connect="1" arrows="1" fold="1" page="1" pageScale="1" pageWidth="827" pageHeight="1169" math="0" shadow="0">
      <root>
        <mxCell id="0" />
        <mxCell id="1" parent="0" />
      </root>
    </mxGraphModel>
  </diagram>
</mxfile>
